<mxfile host="Electron" agent="Mozilla/5.0 (X11; Linux x86_64) AppleWebKit/537.36 (KHTML, like Gecko) draw.io/24.7.17 Chrome/128.0.6613.36 Electron/32.0.1 Safari/537.36" version="24.7.17">
  <diagram name="Page-1" id="R4XA7tSctUNUyfBh0-gc">
    <mxGraphModel dx="1728" dy="1875" grid="1" gridSize="10" guides="1" tooltips="1" connect="1" arrows="1" fold="1" page="1" pageScale="1" pageWidth="1100" pageHeight="850" math="0" shadow="0">
      <root>
        <mxCell id="0" />
        <mxCell id="1" parent="0" />
        <mxCell id="yHmjnMltrz2Mrqiuffwt-62" value="" style="shape=flexArrow;endArrow=classic;html=1;rounded=0;exitX=1;exitY=0.5;exitDx=0;exitDy=0;entryX=0;entryY=0.5;entryDx=0;entryDy=0;fillColor=#f5f5f5;strokeColor=#666666;" parent="1" source="yHmjnMltrz2Mrqiuffwt-80" target="yHmjnMltrz2Mrqiuffwt-56" edge="1">
          <mxGeometry width="50" height="50" relative="1" as="geometry">
            <mxPoint x="620" y="-350" as="sourcePoint" />
            <mxPoint x="710" y="-470" as="targetPoint" />
            <Array as="points">
              <mxPoint x="650" y="-360" />
              <mxPoint x="650" y="-470" />
            </Array>
          </mxGeometry>
        </mxCell>
        <mxCell id="yHmjnMltrz2Mrqiuffwt-1" value="" style="rounded=1;whiteSpace=wrap;html=1;fillColor=none;dashed=1;arcSize=4;" parent="1" vertex="1">
          <mxGeometry x="150" y="-680" width="1000" height="1430" as="geometry" />
        </mxCell>
        <mxCell id="yHmjnMltrz2Mrqiuffwt-13" value="reset_in" style="text;html=1;align=left;verticalAlign=middle;whiteSpace=wrap;rounded=0;fontStyle=1" parent="1" vertex="1">
          <mxGeometry x="40" y="-410" width="50" height="20" as="geometry" />
        </mxCell>
        <mxCell id="yHmjnMltrz2Mrqiuffwt-14" value="clk_in" style="text;html=1;align=left;verticalAlign=middle;whiteSpace=wrap;rounded=0;fontStyle=1" parent="1" vertex="1">
          <mxGeometry x="40" y="-380" width="35" height="20" as="geometry" />
        </mxCell>
        <mxCell id="yHmjnMltrz2Mrqiuffwt-15" value="" style="endArrow=classic;html=1;rounded=0;exitX=0;exitY=1;exitDx=0;exitDy=0;" parent="1" source="yHmjnMltrz2Mrqiuffwt-13" edge="1">
          <mxGeometry width="50" height="50" relative="1" as="geometry">
            <mxPoint x="440" y="-200" as="sourcePoint" />
            <mxPoint x="340" y="-390" as="targetPoint" />
          </mxGeometry>
        </mxCell>
        <mxCell id="yHmjnMltrz2Mrqiuffwt-16" value="" style="endArrow=classic;html=1;rounded=0;exitX=0;exitY=1;exitDx=0;exitDy=0;" parent="1" edge="1">
          <mxGeometry width="50" height="50" relative="1" as="geometry">
            <mxPoint x="40" y="-360" as="sourcePoint" />
            <mxPoint x="340" y="-360" as="targetPoint" />
          </mxGeometry>
        </mxCell>
        <mxCell id="yHmjnMltrz2Mrqiuffwt-17" value="" style="endArrow=classic;html=1;rounded=0;entryX=0;entryY=0.5;entryDx=0;entryDy=0;startArrow=oval;startFill=1;" parent="1" target="yHmjnMltrz2Mrqiuffwt-107" edge="1">
          <mxGeometry width="50" height="50" relative="1" as="geometry">
            <mxPoint x="180" y="-360" as="sourcePoint" />
            <mxPoint x="340" y="-89.09545454545446" as="targetPoint" />
            <Array as="points">
              <mxPoint x="180" y="-10" />
            </Array>
          </mxGeometry>
        </mxCell>
        <mxCell id="yHmjnMltrz2Mrqiuffwt-19" value="sync_stb_in" style="text;html=1;align=left;verticalAlign=middle;whiteSpace=wrap;rounded=0;fontStyle=1" parent="1" vertex="1">
          <mxGeometry x="40" y="-320" width="70" height="20" as="geometry" />
        </mxCell>
        <mxCell id="yHmjnMltrz2Mrqiuffwt-20" value="" style="endArrow=classic;html=1;rounded=0;entryX=-0.012;entryY=0.167;entryDx=0;entryDy=0;entryPerimeter=0;" parent="1" edge="1">
          <mxGeometry width="50" height="50" relative="1" as="geometry">
            <mxPoint x="40" y="-300" as="sourcePoint" />
            <mxPoint x="340" y="-300" as="targetPoint" />
          </mxGeometry>
        </mxCell>
        <mxCell id="yHmjnMltrz2Mrqiuffwt-21" value="write_stb_in" style="text;html=1;align=left;verticalAlign=middle;whiteSpace=wrap;rounded=0;fontStyle=1" parent="1" vertex="1">
          <mxGeometry x="40" y="-340" width="80" height="20" as="geometry" />
        </mxCell>
        <mxCell id="yHmjnMltrz2Mrqiuffwt-22" value="" style="endArrow=classic;html=1;rounded=0;entryX=-0.012;entryY=0.167;entryDx=0;entryDy=0;entryPerimeter=0;" parent="1" edge="1">
          <mxGeometry width="50" height="50" relative="1" as="geometry">
            <mxPoint x="40" y="-320" as="sourcePoint" />
            <mxPoint x="340" y="-320" as="targetPoint" />
          </mxGeometry>
        </mxCell>
        <mxCell id="yHmjnMltrz2Mrqiuffwt-23" value="" style="shape=flexArrow;endArrow=classic;html=1;rounded=0;entryX=0;entryY=0.5;entryDx=0;entryDy=0;fillColor=#f5f5f5;strokeColor=#666666;" parent="1" edge="1">
          <mxGeometry width="50" height="50" relative="1" as="geometry">
            <mxPoint x="40" y="-270" as="sourcePoint" />
            <mxPoint x="340" y="-269.5450000000001" as="targetPoint" />
          </mxGeometry>
        </mxCell>
        <mxCell id="yHmjnMltrz2Mrqiuffwt-25" value="ready_out" style="text;html=1;align=left;verticalAlign=middle;whiteSpace=wrap;rounded=0;fontStyle=1" parent="1" vertex="1">
          <mxGeometry x="40" y="680" width="80" height="30" as="geometry" />
        </mxCell>
        <mxCell id="yHmjnMltrz2Mrqiuffwt-26" value="oled_csn_out" style="text;html=1;align=right;verticalAlign=middle;whiteSpace=wrap;rounded=0;fontStyle=1" parent="1" vertex="1">
          <mxGeometry x="1150" y="600" width="130" height="20" as="geometry" />
        </mxCell>
        <mxCell id="yHmjnMltrz2Mrqiuffwt-27" value="oled_clk_out" style="text;html=1;align=right;verticalAlign=middle;whiteSpace=wrap;rounded=0;fontStyle=1" parent="1" vertex="1">
          <mxGeometry x="1140" y="620" width="140" height="20" as="geometry" />
        </mxCell>
        <mxCell id="yHmjnMltrz2Mrqiuffwt-29" value="oled_mosi_out" style="text;html=1;align=right;verticalAlign=middle;whiteSpace=wrap;rounded=0;fontStyle=1" parent="1" vertex="1">
          <mxGeometry x="1160" y="640" width="120" height="20" as="geometry" />
        </mxCell>
        <mxCell id="yHmjnMltrz2Mrqiuffwt-31" value="&lt;font size=&quot;1&quot; style=&quot;&quot;&gt;&lt;b style=&quot;font-size: 20px;&quot;&gt;==&lt;/b&gt;&lt;/font&gt;" style="ellipse;whiteSpace=wrap;html=1;aspect=fixed;fillColor=#d5e8d4;strokeColor=#82b366;" parent="1" vertex="1">
          <mxGeometry x="690" y="-380" width="40" height="40" as="geometry" />
        </mxCell>
        <mxCell id="yHmjnMltrz2Mrqiuffwt-34" value="S_MC_EXEC" style="text;html=1;align=left;verticalAlign=middle;whiteSpace=wrap;rounded=0;fontStyle=1;fontSize=14;" parent="1" vertex="1">
          <mxGeometry x="665" y="-450" width="90" height="40" as="geometry" />
        </mxCell>
        <mxCell id="yHmjnMltrz2Mrqiuffwt-36" value="data_in" style="text;html=1;align=left;verticalAlign=middle;whiteSpace=wrap;rounded=0;fontStyle=1" parent="1" vertex="1">
          <mxGeometry x="40" y="-300" width="50" height="30" as="geometry" />
        </mxCell>
        <mxCell id="yHmjnMltrz2Mrqiuffwt-38" value="" style="endArrow=classic;html=1;rounded=0;" parent="1" edge="1">
          <mxGeometry width="50" height="50" relative="1" as="geometry">
            <mxPoint x="1090" y="130" as="sourcePoint" />
            <mxPoint x="1280" y="130" as="targetPoint" />
          </mxGeometry>
        </mxCell>
        <mxCell id="yHmjnMltrz2Mrqiuffwt-39" value="" style="endArrow=classic;html=1;rounded=0;exitX=1;exitY=0.5;exitDx=0;exitDy=0;" parent="1" source="yHmjnMltrz2Mrqiuffwt-122" edge="1">
          <mxGeometry width="50" height="50" relative="1" as="geometry">
            <mxPoint x="1470" y="60" as="sourcePoint" />
            <mxPoint x="1280" y="240" as="targetPoint" />
          </mxGeometry>
        </mxCell>
        <mxCell id="yHmjnMltrz2Mrqiuffwt-56" value="&lt;font size=&quot;1&quot; style=&quot;&quot;&gt;&lt;b style=&quot;font-size: 20px;&quot;&gt;==&lt;/b&gt;&lt;/font&gt;" style="ellipse;whiteSpace=wrap;html=1;aspect=fixed;fillColor=#d5e8d4;strokeColor=#82b366;" parent="1" vertex="1">
          <mxGeometry x="770" y="-490" width="40" height="40" as="geometry" />
        </mxCell>
        <mxCell id="yHmjnMltrz2Mrqiuffwt-58" value="" style="shape=flexArrow;endArrow=classic;html=1;rounded=0;fillColor=#f5f5f5;strokeColor=#666666;" parent="1" edge="1">
          <mxGeometry width="50" height="50" relative="1" as="geometry">
            <mxPoint x="869.66" y="-640" as="sourcePoint" />
            <mxPoint x="869.66" y="-600" as="targetPoint" />
          </mxGeometry>
        </mxCell>
        <mxCell id="yHmjnMltrz2Mrqiuffwt-59" value="S_SEND_DATA" style="text;html=1;align=left;verticalAlign=middle;whiteSpace=wrap;rounded=0;fontStyle=1;fontSize=14;" parent="1" vertex="1">
          <mxGeometry x="740" y="-550" width="100" height="20" as="geometry" />
        </mxCell>
        <mxCell id="yHmjnMltrz2Mrqiuffwt-68" value="oled_rstn_out" style="text;html=1;align=right;verticalAlign=middle;whiteSpace=wrap;rounded=0;fontStyle=1" parent="1" vertex="1">
          <mxGeometry x="1160" y="220" width="120" height="20" as="geometry" />
        </mxCell>
        <mxCell id="yHmjnMltrz2Mrqiuffwt-69" value="oled_vbatn_out" style="text;html=1;align=right;verticalAlign=middle;whiteSpace=wrap;rounded=0;fontStyle=1" parent="1" vertex="1">
          <mxGeometry x="1160" y="180" width="120" height="20" as="geometry" />
        </mxCell>
        <mxCell id="yHmjnMltrz2Mrqiuffwt-70" value="oled_vcdn_out" style="text;html=1;align=right;verticalAlign=middle;whiteSpace=wrap;rounded=0;fontStyle=1" parent="1" vertex="1">
          <mxGeometry x="1160" y="200" width="120" height="20" as="geometry" />
        </mxCell>
        <mxCell id="yHmjnMltrz2Mrqiuffwt-71" value="oled_dc_out" style="text;html=1;align=right;verticalAlign=middle;whiteSpace=wrap;rounded=0;fontStyle=1" parent="1" vertex="1">
          <mxGeometry x="1180" y="109.35" width="100" height="20" as="geometry" />
        </mxCell>
        <mxCell id="yHmjnMltrz2Mrqiuffwt-127" value="" style="group" parent="1" vertex="1" connectable="0">
          <mxGeometry x="340" y="-430" width="280" height="240" as="geometry" />
        </mxCell>
        <mxCell id="yHmjnMltrz2Mrqiuffwt-75" value="" style="rounded=1;whiteSpace=wrap;html=1;fillColor=#f9f7ed;strokeColor=#36393d;opacity=50;container=0;perimeterSpacing=0;arcSize=6;" parent="yHmjnMltrz2Mrqiuffwt-127" vertex="1">
          <mxGeometry y="20" width="280" height="220" as="geometry" />
        </mxCell>
        <mxCell id="yHmjnMltrz2Mrqiuffwt-96" value="mc_procedure_offset&amp;nbsp;" style="text;html=1;align=right;verticalAlign=middle;whiteSpace=wrap;rounded=0;container=0;" parent="yHmjnMltrz2Mrqiuffwt-127" vertex="1">
          <mxGeometry x="150" y="190" width="130" height="20" as="geometry" />
        </mxCell>
        <mxCell id="yHmjnMltrz2Mrqiuffwt-76" value="State Machine" style="text;html=1;align=center;verticalAlign=middle;whiteSpace=wrap;rounded=0;container=0;fontStyle=1" parent="yHmjnMltrz2Mrqiuffwt-127" vertex="1">
          <mxGeometry x="40" width="200" height="20" as="geometry" />
        </mxCell>
        <mxCell id="yHmjnMltrz2Mrqiuffwt-77" value="&amp;nbsp;reset_in" style="text;html=1;align=left;verticalAlign=middle;whiteSpace=wrap;rounded=0;container=0;" parent="yHmjnMltrz2Mrqiuffwt-127" vertex="1">
          <mxGeometry y="30" width="60" height="20" as="geometry" />
        </mxCell>
        <mxCell id="yHmjnMltrz2Mrqiuffwt-78" value="" style="triangle;whiteSpace=wrap;html=1;rotation=0;container=0;" parent="yHmjnMltrz2Mrqiuffwt-127" vertex="1">
          <mxGeometry y="60" width="7.5" height="20" as="geometry" />
        </mxCell>
        <mxCell id="yHmjnMltrz2Mrqiuffwt-79" value="clk_in" style="text;html=1;align=left;verticalAlign=middle;whiteSpace=wrap;rounded=0;container=0;" parent="yHmjnMltrz2Mrqiuffwt-127" vertex="1">
          <mxGeometry x="10" y="60" width="40" height="20" as="geometry" />
        </mxCell>
        <mxCell id="yHmjnMltrz2Mrqiuffwt-80" value="state_r&amp;nbsp;" style="text;html=1;align=right;verticalAlign=middle;whiteSpace=wrap;rounded=0;container=0;" parent="yHmjnMltrz2Mrqiuffwt-127" vertex="1">
          <mxGeometry x="220" y="60" width="60" height="20" as="geometry" />
        </mxCell>
        <mxCell id="yHmjnMltrz2Mrqiuffwt-81" value="&amp;nbsp;mc_executor_ready" style="text;html=1;align=left;verticalAlign=middle;whiteSpace=wrap;rounded=0;container=0;" parent="yHmjnMltrz2Mrqiuffwt-127" vertex="1">
          <mxGeometry y="190" width="120" height="20" as="geometry" />
        </mxCell>
        <mxCell id="yHmjnMltrz2Mrqiuffwt-82" value="spi_data_out&amp;nbsp;" style="text;html=1;align=right;verticalAlign=middle;whiteSpace=wrap;rounded=0;container=0;" parent="yHmjnMltrz2Mrqiuffwt-127" vertex="1">
          <mxGeometry x="190" y="150" width="90" height="20" as="geometry" />
        </mxCell>
        <mxCell id="yHmjnMltrz2Mrqiuffwt-83" value="&amp;nbsp;data_in" style="text;html=1;align=left;verticalAlign=middle;whiteSpace=wrap;rounded=0;container=0;" parent="yHmjnMltrz2Mrqiuffwt-127" vertex="1">
          <mxGeometry y="150" width="50" height="20" as="geometry" />
        </mxCell>
        <mxCell id="yHmjnMltrz2Mrqiuffwt-84" value="&amp;nbsp;spi_driver_ready" style="text;html=1;align=left;verticalAlign=middle;whiteSpace=wrap;rounded=0;container=0;" parent="yHmjnMltrz2Mrqiuffwt-127" vertex="1">
          <mxGeometry y="210" width="100" height="20" as="geometry" />
        </mxCell>
        <mxCell id="yHmjnMltrz2Mrqiuffwt-97" value="&amp;nbsp;write_stb_in" style="text;html=1;align=left;verticalAlign=middle;whiteSpace=wrap;rounded=0;container=0;" parent="yHmjnMltrz2Mrqiuffwt-127" vertex="1">
          <mxGeometry y="100" width="80" height="20" as="geometry" />
        </mxCell>
        <mxCell id="yHmjnMltrz2Mrqiuffwt-98" value="&amp;nbsp;sync_stb_in" style="text;html=1;align=left;verticalAlign=middle;whiteSpace=wrap;rounded=0;container=0;" parent="yHmjnMltrz2Mrqiuffwt-127" vertex="1">
          <mxGeometry y="120" width="80" height="20" as="geometry" />
        </mxCell>
        <mxCell id="yHmjnMltrz2Mrqiuffwt-99" value="" style="endArrow=none;dashed=1;html=1;dashPattern=1 3;strokeWidth=2;rounded=0;" parent="yHmjnMltrz2Mrqiuffwt-127" edge="1">
          <mxGeometry width="50" height="50" relative="1" as="geometry">
            <mxPoint x="1" y="90.54363636363638" as="sourcePoint" />
            <mxPoint x="280" y="90" as="targetPoint" />
          </mxGeometry>
        </mxCell>
        <mxCell id="yHmjnMltrz2Mrqiuffwt-100" value="" style="endArrow=none;dashed=1;html=1;dashPattern=1 3;strokeWidth=2;rounded=0;" parent="yHmjnMltrz2Mrqiuffwt-127" edge="1">
          <mxGeometry width="50" height="50" relative="1" as="geometry">
            <mxPoint x="1" y="181.0936363636364" as="sourcePoint" />
            <mxPoint x="280" y="180" as="targetPoint" />
          </mxGeometry>
        </mxCell>
        <mxCell id="yHmjnMltrz2Mrqiuffwt-128" value="" style="group" parent="1" vertex="1" connectable="0">
          <mxGeometry x="340" y="-80" width="280" height="340" as="geometry" />
        </mxCell>
        <mxCell id="yHmjnMltrz2Mrqiuffwt-103" value="" style="rounded=1;whiteSpace=wrap;html=1;fillColor=#f9f7ed;strokeColor=#36393d;opacity=50;container=0;arcSize=6;" parent="yHmjnMltrz2Mrqiuffwt-128" vertex="1">
          <mxGeometry y="20" width="280" height="320" as="geometry" />
        </mxCell>
        <mxCell id="yHmjnMltrz2Mrqiuffwt-104" value="spi_tx_trigger_out&amp;nbsp;" style="text;html=1;align=right;verticalAlign=middle;whiteSpace=wrap;rounded=0;container=0;" parent="yHmjnMltrz2Mrqiuffwt-128" vertex="1">
          <mxGeometry x="150" y="160" width="130" height="20" as="geometry" />
        </mxCell>
        <mxCell id="yHmjnMltrz2Mrqiuffwt-105" value="SSD1306 Microcode" style="text;html=1;align=center;verticalAlign=middle;whiteSpace=wrap;rounded=0;container=0;fontStyle=1" parent="yHmjnMltrz2Mrqiuffwt-128" vertex="1">
          <mxGeometry x="40" width="200" height="20" as="geometry" />
        </mxCell>
        <mxCell id="yHmjnMltrz2Mrqiuffwt-106" value="&amp;nbsp;reset_in" style="text;html=1;align=left;verticalAlign=middle;whiteSpace=wrap;rounded=0;container=0;" parent="yHmjnMltrz2Mrqiuffwt-128" vertex="1">
          <mxGeometry y="30" width="60" height="20" as="geometry" />
        </mxCell>
        <mxCell id="yHmjnMltrz2Mrqiuffwt-107" value="" style="triangle;whiteSpace=wrap;html=1;rotation=0;container=0;" parent="yHmjnMltrz2Mrqiuffwt-128" vertex="1">
          <mxGeometry y="60" width="7.5" height="20" as="geometry" />
        </mxCell>
        <mxCell id="yHmjnMltrz2Mrqiuffwt-108" value="clk_in" style="text;html=1;align=left;verticalAlign=middle;whiteSpace=wrap;rounded=0;container=0;" parent="yHmjnMltrz2Mrqiuffwt-128" vertex="1">
          <mxGeometry x="10" y="60" width="40" height="20" as="geometry" />
        </mxCell>
        <mxCell id="yHmjnMltrz2Mrqiuffwt-110" value="&amp;nbsp;spi_ready_in" style="text;html=1;align=left;verticalAlign=middle;whiteSpace=wrap;rounded=0;container=0;" parent="yHmjnMltrz2Mrqiuffwt-128" vertex="1">
          <mxGeometry y="160" width="120" height="20" as="geometry" />
        </mxCell>
        <mxCell id="yHmjnMltrz2Mrqiuffwt-111" value="procedure_done_out&amp;nbsp;" style="text;html=1;align=right;verticalAlign=middle;whiteSpace=wrap;rounded=0;container=0;" parent="yHmjnMltrz2Mrqiuffwt-128" vertex="1">
          <mxGeometry x="150" y="120" width="130" height="20" as="geometry" />
        </mxCell>
        <mxCell id="yHmjnMltrz2Mrqiuffwt-114" value="&amp;nbsp;procedure_offset_in" style="text;html=1;align=left;verticalAlign=middle;whiteSpace=wrap;rounded=0;container=0;" parent="yHmjnMltrz2Mrqiuffwt-128" vertex="1">
          <mxGeometry y="100" width="80" height="20" as="geometry" />
        </mxCell>
        <mxCell id="yHmjnMltrz2Mrqiuffwt-115" value="&amp;nbsp;procedure_start_in" style="text;html=1;align=left;verticalAlign=middle;whiteSpace=wrap;rounded=0;container=0;" parent="yHmjnMltrz2Mrqiuffwt-128" vertex="1">
          <mxGeometry y="120" width="80" height="20" as="geometry" />
        </mxCell>
        <mxCell id="yHmjnMltrz2Mrqiuffwt-116" value="" style="endArrow=none;dashed=1;html=1;dashPattern=1 3;strokeWidth=2;rounded=0;" parent="yHmjnMltrz2Mrqiuffwt-128" edge="1">
          <mxGeometry width="50" height="50" relative="1" as="geometry">
            <mxPoint x="1" y="90.54363636363632" as="sourcePoint" />
            <mxPoint x="280" y="90" as="targetPoint" />
          </mxGeometry>
        </mxCell>
        <mxCell id="yHmjnMltrz2Mrqiuffwt-117" value="" style="endArrow=none;dashed=1;html=1;dashPattern=1 3;strokeWidth=2;rounded=0;" parent="yHmjnMltrz2Mrqiuffwt-128" edge="1">
          <mxGeometry width="50" height="50" relative="1" as="geometry">
            <mxPoint x="1" y="151.0936363636364" as="sourcePoint" />
            <mxPoint x="280" y="150" as="targetPoint" />
          </mxGeometry>
        </mxCell>
        <mxCell id="yHmjnMltrz2Mrqiuffwt-118" value="spi_data_out&amp;nbsp;" style="text;html=1;align=right;verticalAlign=middle;whiteSpace=wrap;rounded=0;container=0;" parent="yHmjnMltrz2Mrqiuffwt-128" vertex="1">
          <mxGeometry x="150" y="210" width="130" height="20" as="geometry" />
        </mxCell>
        <mxCell id="yHmjnMltrz2Mrqiuffwt-119" value="spi_last_byte_out&amp;nbsp;" style="text;html=1;align=right;verticalAlign=middle;whiteSpace=wrap;rounded=0;container=0;" parent="yHmjnMltrz2Mrqiuffwt-128" vertex="1">
          <mxGeometry x="150" y="180" width="130" height="20" as="geometry" />
        </mxCell>
        <mxCell id="yHmjnMltrz2Mrqiuffwt-120" value="" style="endArrow=none;dashed=1;html=1;dashPattern=1 3;strokeWidth=2;rounded=0;" parent="yHmjnMltrz2Mrqiuffwt-128" edge="1">
          <mxGeometry width="50" height="50" relative="1" as="geometry">
            <mxPoint x="1" y="151.0936363636364" as="sourcePoint" />
            <mxPoint x="280" y="150" as="targetPoint" />
          </mxGeometry>
        </mxCell>
        <mxCell id="yHmjnMltrz2Mrqiuffwt-121" value="" style="endArrow=none;dashed=1;html=1;dashPattern=1 3;strokeWidth=2;rounded=0;" parent="yHmjnMltrz2Mrqiuffwt-128" edge="1">
          <mxGeometry width="50" height="50" relative="1" as="geometry">
            <mxPoint x="1" y="241.0936363636364" as="sourcePoint" />
            <mxPoint x="280" y="240" as="targetPoint" />
          </mxGeometry>
        </mxCell>
        <mxCell id="yHmjnMltrz2Mrqiuffwt-122" value="oled_rstn_out&amp;nbsp;" style="text;html=1;align=right;verticalAlign=middle;whiteSpace=wrap;rounded=0;container=0;" parent="yHmjnMltrz2Mrqiuffwt-128" vertex="1">
          <mxGeometry x="150" y="310" width="130" height="20" as="geometry" />
        </mxCell>
        <mxCell id="yHmjnMltrz2Mrqiuffwt-123" value="oled_vbatn_out&amp;nbsp;" style="text;html=1;align=right;verticalAlign=middle;whiteSpace=wrap;rounded=0;container=0;" parent="yHmjnMltrz2Mrqiuffwt-128" vertex="1">
          <mxGeometry x="150" y="270" width="130" height="20" as="geometry" />
        </mxCell>
        <mxCell id="yHmjnMltrz2Mrqiuffwt-124" value="oled_vcdn_out&amp;nbsp;" style="text;html=1;align=right;verticalAlign=middle;whiteSpace=wrap;rounded=0;container=0;" parent="yHmjnMltrz2Mrqiuffwt-128" vertex="1">
          <mxGeometry x="150" y="290" width="130" height="20" as="geometry" />
        </mxCell>
        <mxCell id="yHmjnMltrz2Mrqiuffwt-125" value="oled_dc_out&amp;nbsp;" style="text;html=1;align=right;verticalAlign=middle;whiteSpace=wrap;rounded=0;container=0;" parent="yHmjnMltrz2Mrqiuffwt-128" vertex="1">
          <mxGeometry x="150" y="250" width="130" height="20" as="geometry" />
        </mxCell>
        <mxCell id="yHmjnMltrz2Mrqiuffwt-129" value="" style="endArrow=classic;html=1;rounded=0;entryX=0;entryY=0.063;entryDx=0;entryDy=0;entryPerimeter=0;startArrow=oval;startFill=1;" parent="1" target="yHmjnMltrz2Mrqiuffwt-103" edge="1">
          <mxGeometry width="50" height="50" relative="1" as="geometry">
            <mxPoint x="210" y="-390" as="sourcePoint" />
            <mxPoint x="340" y="-90" as="targetPoint" />
            <Array as="points">
              <mxPoint x="210" y="-40" />
            </Array>
          </mxGeometry>
        </mxCell>
        <mxCell id="yHmjnMltrz2Mrqiuffwt-131" value="S_IDLE" style="text;html=1;align=center;verticalAlign=middle;whiteSpace=wrap;rounded=0;fontStyle=1;fontSize=14;" parent="1" vertex="1">
          <mxGeometry x="835" y="-660" width="70" height="20" as="geometry" />
        </mxCell>
        <mxCell id="yHmjnMltrz2Mrqiuffwt-132" value="&lt;font size=&quot;1&quot; style=&quot;&quot;&gt;&lt;b style=&quot;font-size: 20px;&quot;&gt;==&lt;/b&gt;&lt;/font&gt;" style="ellipse;whiteSpace=wrap;html=1;aspect=fixed;fillColor=#d5e8d4;strokeColor=#82b366;" parent="1" vertex="1">
          <mxGeometry x="850" y="-600" width="40" height="40" as="geometry" />
        </mxCell>
        <mxCell id="yHmjnMltrz2Mrqiuffwt-130" value="" style="shape=flexArrow;endArrow=classic;html=1;rounded=0;startArrow=block;entryX=0;entryY=0.5;entryDx=0;entryDy=0;fillColor=#f5f5f5;strokeColor=#666666;" parent="1" target="yHmjnMltrz2Mrqiuffwt-132" edge="1">
          <mxGeometry width="50" height="50" relative="1" as="geometry">
            <mxPoint x="690" y="-360" as="sourcePoint" />
            <mxPoint x="580" y="-460" as="targetPoint" />
            <Array as="points">
              <mxPoint x="650" y="-360" />
              <mxPoint x="650" y="-470" />
              <mxPoint x="650" y="-580" />
            </Array>
          </mxGeometry>
        </mxCell>
        <mxCell id="yHmjnMltrz2Mrqiuffwt-135" value="" style="shape=flexArrow;endArrow=classic;html=1;rounded=0;fillColor=#f5f5f5;strokeColor=#666666;" parent="1" edge="1">
          <mxGeometry width="50" height="50" relative="1" as="geometry">
            <mxPoint x="789.6600000000001" y="-530" as="sourcePoint" />
            <mxPoint x="789.6600000000001" y="-490" as="targetPoint" />
          </mxGeometry>
        </mxCell>
        <mxCell id="yHmjnMltrz2Mrqiuffwt-136" value="" style="shape=flexArrow;endArrow=classic;html=1;rounded=0;fillColor=#f5f5f5;strokeColor=#666666;" parent="1" edge="1">
          <mxGeometry width="50" height="50" relative="1" as="geometry">
            <mxPoint x="709.9999999999999" y="-420" as="sourcePoint" />
            <mxPoint x="709.9999999999999" y="-380" as="targetPoint" />
          </mxGeometry>
        </mxCell>
        <mxCell id="1_nh3ZOcjal8TI4YxW9p-1" value="" style="endArrow=classic;html=1;rounded=0;entryX=0;entryY=0.5;entryDx=0;entryDy=0;exitX=0.5;exitY=1;exitDx=0;exitDy=0;" parent="1" source="yHmjnMltrz2Mrqiuffwt-31" target="yHmjnMltrz2Mrqiuffwt-115" edge="1">
          <mxGeometry width="50" height="50" relative="1" as="geometry">
            <mxPoint x="840" y="-130" as="sourcePoint" />
            <mxPoint x="750" y="30" as="targetPoint" />
            <Array as="points">
              <mxPoint x="710" y="-100" />
              <mxPoint x="240" y="-100" />
              <mxPoint x="240" y="50" />
            </Array>
          </mxGeometry>
        </mxCell>
        <mxCell id="1_nh3ZOcjal8TI4YxW9p-22" value="" style="group" parent="1" vertex="1" connectable="0">
          <mxGeometry x="380" y="420" width="200" height="260" as="geometry" />
        </mxCell>
        <mxCell id="1_nh3ZOcjal8TI4YxW9p-4" value="" style="rounded=1;whiteSpace=wrap;html=1;fillColor=#f9f7ed;strokeColor=#36393d;opacity=50;container=0;perimeterSpacing=0;arcSize=6;" parent="1_nh3ZOcjal8TI4YxW9p-22" vertex="1">
          <mxGeometry y="20" width="200" height="240" as="geometry" />
        </mxCell>
        <mxCell id="1_nh3ZOcjal8TI4YxW9p-5" value="select_out&amp;nbsp;" style="text;html=1;align=right;verticalAlign=middle;whiteSpace=wrap;rounded=0;container=0;" parent="1_nh3ZOcjal8TI4YxW9p-22" vertex="1">
          <mxGeometry x="70" y="190" width="130" height="20" as="geometry" />
        </mxCell>
        <mxCell id="1_nh3ZOcjal8TI4YxW9p-6" value="SPI Driver" style="text;html=1;align=center;verticalAlign=middle;whiteSpace=wrap;rounded=0;container=0;fontStyle=1" parent="1_nh3ZOcjal8TI4YxW9p-22" vertex="1">
          <mxGeometry width="200" height="20" as="geometry" />
        </mxCell>
        <mxCell id="1_nh3ZOcjal8TI4YxW9p-7" value="&amp;nbsp;reset_in" style="text;html=1;align=left;verticalAlign=middle;whiteSpace=wrap;rounded=0;container=0;" parent="1_nh3ZOcjal8TI4YxW9p-22" vertex="1">
          <mxGeometry y="30" width="60" height="20" as="geometry" />
        </mxCell>
        <mxCell id="1_nh3ZOcjal8TI4YxW9p-8" value="" style="triangle;whiteSpace=wrap;html=1;rotation=0;container=0;" parent="1_nh3ZOcjal8TI4YxW9p-22" vertex="1">
          <mxGeometry y="60" width="7.5" height="20" as="geometry" />
        </mxCell>
        <mxCell id="1_nh3ZOcjal8TI4YxW9p-9" value="clk_in" style="text;html=1;align=left;verticalAlign=middle;whiteSpace=wrap;rounded=0;container=0;" parent="1_nh3ZOcjal8TI4YxW9p-22" vertex="1">
          <mxGeometry x="10" y="60" width="40" height="20" as="geometry" />
        </mxCell>
        <mxCell id="1_nh3ZOcjal8TI4YxW9p-11" value="sck_out&amp;nbsp;" style="text;html=1;align=right;verticalAlign=middle;whiteSpace=wrap;rounded=0;container=0;" parent="1_nh3ZOcjal8TI4YxW9p-22" vertex="1">
          <mxGeometry x="80" y="210" width="120" height="20" as="geometry" />
        </mxCell>
        <mxCell id="1_nh3ZOcjal8TI4YxW9p-12" value="data_out&amp;nbsp;" style="text;html=1;align=right;verticalAlign=middle;whiteSpace=wrap;rounded=0;container=0;" parent="1_nh3ZOcjal8TI4YxW9p-22" vertex="1">
          <mxGeometry x="135" y="150" width="65" height="20" as="geometry" />
        </mxCell>
        <mxCell id="1_nh3ZOcjal8TI4YxW9p-13" value="&amp;nbsp;data_in" style="text;html=1;align=left;verticalAlign=middle;whiteSpace=wrap;rounded=0;container=0;" parent="1_nh3ZOcjal8TI4YxW9p-22" vertex="1">
          <mxGeometry y="150" width="50" height="20" as="geometry" />
        </mxCell>
        <mxCell id="1_nh3ZOcjal8TI4YxW9p-14" value="&amp;nbsp;miso_in" style="text;html=1;align=left;verticalAlign=middle;whiteSpace=wrap;rounded=0;container=0;" parent="1_nh3ZOcjal8TI4YxW9p-22" vertex="1">
          <mxGeometry y="210" width="100" height="20" as="geometry" />
        </mxCell>
        <mxCell id="1_nh3ZOcjal8TI4YxW9p-15" value="&amp;nbsp;tx_start_in" style="text;html=1;align=left;verticalAlign=middle;whiteSpace=wrap;rounded=0;container=0;" parent="1_nh3ZOcjal8TI4YxW9p-22" vertex="1">
          <mxGeometry y="100" width="80" height="20" as="geometry" />
        </mxCell>
        <mxCell id="1_nh3ZOcjal8TI4YxW9p-16" value="&amp;nbsp;deactivate_cs_in" style="text;html=1;align=left;verticalAlign=middle;whiteSpace=wrap;rounded=0;container=0;" parent="1_nh3ZOcjal8TI4YxW9p-22" vertex="1">
          <mxGeometry y="120" width="80" height="20" as="geometry" />
        </mxCell>
        <mxCell id="1_nh3ZOcjal8TI4YxW9p-17" value="" style="endArrow=none;dashed=1;html=1;dashPattern=1 3;strokeWidth=2;rounded=0;" parent="1_nh3ZOcjal8TI4YxW9p-22" edge="1">
          <mxGeometry width="50" height="50" relative="1" as="geometry">
            <mxPoint x="1" y="90.54363636363638" as="sourcePoint" />
            <mxPoint x="200" y="90" as="targetPoint" />
          </mxGeometry>
        </mxCell>
        <mxCell id="1_nh3ZOcjal8TI4YxW9p-18" value="" style="endArrow=none;dashed=1;html=1;dashPattern=1 3;strokeWidth=2;rounded=0;" parent="1_nh3ZOcjal8TI4YxW9p-22" edge="1">
          <mxGeometry width="50" height="50" relative="1" as="geometry">
            <mxPoint x="1" y="181.0936363636364" as="sourcePoint" />
            <mxPoint x="200" y="180" as="targetPoint" />
          </mxGeometry>
        </mxCell>
        <mxCell id="1_nh3ZOcjal8TI4YxW9p-19" value="&amp;nbsp;tx_done_out&amp;nbsp;" style="text;html=1;align=right;verticalAlign=middle;whiteSpace=wrap;rounded=0;container=0;" parent="1_nh3ZOcjal8TI4YxW9p-22" vertex="1">
          <mxGeometry x="122.5" y="100" width="77.5" height="20" as="geometry" />
        </mxCell>
        <mxCell id="1_nh3ZOcjal8TI4YxW9p-21" value="mosi_out&amp;nbsp;" style="text;html=1;align=right;verticalAlign=middle;whiteSpace=wrap;rounded=0;container=0;" parent="1_nh3ZOcjal8TI4YxW9p-22" vertex="1">
          <mxGeometry x="80" y="230" width="120" height="20" as="geometry" />
        </mxCell>
        <mxCell id="1_nh3ZOcjal8TI4YxW9p-23" value="" style="group;direction=east;rotation=-180;" parent="1" vertex="1" connectable="0">
          <mxGeometry x="710" y="260" width="60" height="80" as="geometry" />
        </mxCell>
        <mxCell id="1_nh3ZOcjal8TI4YxW9p-24" value="" style="rounded=0;whiteSpace=wrap;html=1;fillColor=#dae8fc;strokeColor=#6c8ebf;container=0;rotation=-180;" parent="1_nh3ZOcjal8TI4YxW9p-23" vertex="1">
          <mxGeometry width="60" height="80" as="geometry" />
        </mxCell>
        <mxCell id="1_nh3ZOcjal8TI4YxW9p-25" value="" style="endArrow=none;html=1;rounded=0;exitX=0;exitY=0;exitDx=0;exitDy=0;entryX=1;entryY=0.5;entryDx=0;entryDy=0;" parent="1_nh3ZOcjal8TI4YxW9p-23" edge="1">
          <mxGeometry width="50" height="50" relative="1" as="geometry">
            <mxPoint x="60" y="80" as="sourcePoint" />
            <mxPoint y="40" as="targetPoint" />
          </mxGeometry>
        </mxCell>
        <mxCell id="1_nh3ZOcjal8TI4YxW9p-26" value="" style="endArrow=none;html=1;rounded=0;exitX=0;exitY=1;exitDx=0;exitDy=0;entryX=1;entryY=0.5;entryDx=0;entryDy=0;" parent="1_nh3ZOcjal8TI4YxW9p-23" source="1_nh3ZOcjal8TI4YxW9p-24" target="1_nh3ZOcjal8TI4YxW9p-24" edge="1">
          <mxGeometry width="50" height="50" relative="1" as="geometry">
            <mxPoint x="-20" y="140" as="sourcePoint" />
            <mxPoint x="-70" y="190" as="targetPoint" />
          </mxGeometry>
        </mxCell>
        <mxCell id="1_nh3ZOcjal8TI4YxW9p-28" value="0" style="text;html=1;align=center;verticalAlign=middle;whiteSpace=wrap;rounded=0;container=0;rotation=0;" parent="1_nh3ZOcjal8TI4YxW9p-23" vertex="1">
          <mxGeometry x="40" y="10" width="20" height="20" as="geometry" />
        </mxCell>
        <mxCell id="1_nh3ZOcjal8TI4YxW9p-27" value="1" style="text;html=1;align=center;verticalAlign=middle;whiteSpace=wrap;rounded=0;container=0;rotation=0;" parent="1_nh3ZOcjal8TI4YxW9p-23" vertex="1">
          <mxGeometry x="40" y="50" width="20" height="20" as="geometry" />
        </mxCell>
        <mxCell id="1_nh3ZOcjal8TI4YxW9p-32" value="" style="endArrow=classic;html=1;rounded=0;exitX=1;exitY=0.5;exitDx=0;exitDy=0;" parent="1" source="1_nh3ZOcjal8TI4YxW9p-19" edge="1">
          <mxGeometry width="50" height="50" relative="1" as="geometry">
            <mxPoint x="810" y="600" as="sourcePoint" />
            <mxPoint x="340" y="-210" as="targetPoint" />
            <Array as="points">
              <mxPoint x="620" y="530" />
              <mxPoint x="620" y="340" />
              <mxPoint x="300" y="340" />
              <mxPoint x="300" y="-210" />
            </Array>
          </mxGeometry>
        </mxCell>
        <mxCell id="1_nh3ZOcjal8TI4YxW9p-47" value="" style="endArrow=classic;html=1;rounded=0;exitX=1;exitY=0.5;exitDx=0;exitDy=0;entryX=0.5;entryY=1;entryDx=0;entryDy=0;" parent="1" source="yHmjnMltrz2Mrqiuffwt-111" target="1_nh3ZOcjal8TI4YxW9p-24" edge="1">
          <mxGeometry width="50" height="50" relative="1" as="geometry">
            <mxPoint x="750" y="-90" as="sourcePoint" />
            <mxPoint x="870" y="-40" as="targetPoint" />
            <Array as="points">
              <mxPoint x="740" y="50" />
            </Array>
          </mxGeometry>
        </mxCell>
        <mxCell id="1_nh3ZOcjal8TI4YxW9p-48" value="" style="endArrow=classic;html=1;rounded=0;entryX=0;entryY=0.5;entryDx=0;entryDy=0;startArrow=oval;startFill=1;" parent="1" target="yHmjnMltrz2Mrqiuffwt-81" edge="1">
          <mxGeometry width="50" height="50" relative="1" as="geometry">
            <mxPoint x="650" y="50" as="sourcePoint" />
            <mxPoint x="600" y="-100" as="targetPoint" />
            <Array as="points">
              <mxPoint x="650" y="-130" />
              <mxPoint x="240" y="-130" />
              <mxPoint x="240" y="-230" />
            </Array>
          </mxGeometry>
        </mxCell>
        <mxCell id="1_nh3ZOcjal8TI4YxW9p-49" value="" style="endArrow=classic;html=1;rounded=0;exitX=1;exitY=0.5;exitDx=0;exitDy=0;entryX=1;entryY=0.5;entryDx=0;entryDy=0;" parent="1" source="yHmjnMltrz2Mrqiuffwt-56" target="qP250_P8fL8N-p6FQQin-26" edge="1">
          <mxGeometry width="50" height="50" relative="1" as="geometry">
            <mxPoint x="750" y="-170" as="sourcePoint" />
            <mxPoint x="810" y="-110" as="targetPoint" />
            <Array as="points">
              <mxPoint x="950" y="-470" />
              <mxPoint x="950" y="400" />
            </Array>
          </mxGeometry>
        </mxCell>
        <mxCell id="1_nh3ZOcjal8TI4YxW9p-51" value="" style="endArrow=classic;html=1;rounded=0;exitX=1;exitY=0.5;exitDx=0;exitDy=0;entryX=1;entryY=0.5;entryDx=0;entryDy=0;" parent="1" source="yHmjnMltrz2Mrqiuffwt-104" target="qP250_P8fL8N-p6FQQin-31" edge="1">
          <mxGeometry width="50" height="50" relative="1" as="geometry">
            <mxPoint x="750" y="-10" as="sourcePoint" />
            <mxPoint x="820" y="480" as="targetPoint" />
            <Array as="points">
              <mxPoint x="920" y="90" />
              <mxPoint x="920" y="440" />
            </Array>
          </mxGeometry>
        </mxCell>
        <mxCell id="1_nh3ZOcjal8TI4YxW9p-52" value="" style="endArrow=classic;html=1;rounded=0;exitX=1;exitY=0.5;exitDx=0;exitDy=0;entryX=1;entryY=0.5;entryDx=0;entryDy=0;" parent="1" source="yHmjnMltrz2Mrqiuffwt-119" target="qP250_P8fL8N-p6FQQin-25" edge="1">
          <mxGeometry width="50" height="50" relative="1" as="geometry">
            <mxPoint x="630" y="90" as="sourcePoint" />
            <mxPoint x="770" y="365" as="targetPoint" />
            <Array as="points">
              <mxPoint x="900" y="110" />
              <mxPoint x="900" y="360" />
            </Array>
          </mxGeometry>
        </mxCell>
        <mxCell id="1_nh3ZOcjal8TI4YxW9p-53" value="" style="group" parent="1" vertex="1" connectable="0">
          <mxGeometry x="1030" y="90" width="60" height="80" as="geometry" />
        </mxCell>
        <mxCell id="1_nh3ZOcjal8TI4YxW9p-54" value="" style="rounded=0;whiteSpace=wrap;html=1;fillColor=#dae8fc;strokeColor=#6c8ebf;container=0;" parent="1_nh3ZOcjal8TI4YxW9p-53" vertex="1">
          <mxGeometry width="60" height="80" as="geometry" />
        </mxCell>
        <mxCell id="1_nh3ZOcjal8TI4YxW9p-55" value="" style="endArrow=none;html=1;rounded=0;exitX=0;exitY=0;exitDx=0;exitDy=0;entryX=1;entryY=0.5;entryDx=0;entryDy=0;" parent="1_nh3ZOcjal8TI4YxW9p-53" edge="1">
          <mxGeometry width="50" height="50" relative="1" as="geometry">
            <mxPoint as="sourcePoint" />
            <mxPoint x="60" y="40" as="targetPoint" />
          </mxGeometry>
        </mxCell>
        <mxCell id="1_nh3ZOcjal8TI4YxW9p-56" value="" style="endArrow=none;html=1;rounded=0;exitX=0;exitY=1;exitDx=0;exitDy=0;entryX=1;entryY=0.5;entryDx=0;entryDy=0;" parent="1_nh3ZOcjal8TI4YxW9p-53" source="1_nh3ZOcjal8TI4YxW9p-54" target="1_nh3ZOcjal8TI4YxW9p-54" edge="1">
          <mxGeometry width="50" height="50" relative="1" as="geometry">
            <mxPoint x="80" y="-60" as="sourcePoint" />
            <mxPoint x="130" y="-110" as="targetPoint" />
          </mxGeometry>
        </mxCell>
        <mxCell id="1_nh3ZOcjal8TI4YxW9p-57" value="1" style="text;html=1;align=center;verticalAlign=middle;whiteSpace=wrap;rounded=0;container=0;" parent="1_nh3ZOcjal8TI4YxW9p-53" vertex="1">
          <mxGeometry y="10" width="20" height="20" as="geometry" />
        </mxCell>
        <mxCell id="1_nh3ZOcjal8TI4YxW9p-58" value="0" style="text;html=1;align=center;verticalAlign=middle;whiteSpace=wrap;rounded=0;container=0;" parent="1_nh3ZOcjal8TI4YxW9p-53" vertex="1">
          <mxGeometry y="50" width="20" height="20" as="geometry" />
        </mxCell>
        <mxCell id="1_nh3ZOcjal8TI4YxW9p-59" value="" style="endArrow=classic;html=1;rounded=0;exitX=1;exitY=0.5;exitDx=0;exitDy=0;entryX=0;entryY=0.5;entryDx=0;entryDy=0;" parent="1" source="yHmjnMltrz2Mrqiuffwt-125" target="1_nh3ZOcjal8TI4YxW9p-58" edge="1">
          <mxGeometry width="50" height="50" relative="1" as="geometry">
            <mxPoint x="1050" y="190" as="sourcePoint" />
            <mxPoint x="800" y="-60" as="targetPoint" />
            <Array as="points">
              <mxPoint x="990" y="180" />
              <mxPoint x="990" y="150" />
            </Array>
          </mxGeometry>
        </mxCell>
        <mxCell id="1_nh3ZOcjal8TI4YxW9p-60" value="" style="endArrow=classic;html=1;rounded=0;startArrow=oval;startFill=1;entryX=0.5;entryY=0;entryDx=0;entryDy=0;" parent="1" target="1_nh3ZOcjal8TI4YxW9p-54" edge="1">
          <mxGeometry width="50" height="50" relative="1" as="geometry">
            <mxPoint x="740" y="50" as="sourcePoint" />
            <mxPoint x="800" y="-60" as="targetPoint" />
            <Array as="points">
              <mxPoint x="1060" y="50" />
            </Array>
          </mxGeometry>
        </mxCell>
        <mxCell id="1_nh3ZOcjal8TI4YxW9p-61" value="" style="endArrow=classic;html=1;rounded=0;exitX=1;exitY=0.5;exitDx=0;exitDy=0;" parent="1" edge="1">
          <mxGeometry width="50" height="50" relative="1" as="geometry">
            <mxPoint x="620" y="219.67999999999995" as="sourcePoint" />
            <mxPoint x="1280" y="220" as="targetPoint" />
          </mxGeometry>
        </mxCell>
        <mxCell id="1_nh3ZOcjal8TI4YxW9p-62" value="" style="endArrow=classic;html=1;rounded=0;exitX=1;exitY=0.5;exitDx=0;exitDy=0;" parent="1" edge="1">
          <mxGeometry width="50" height="50" relative="1" as="geometry">
            <mxPoint x="620" y="200" as="sourcePoint" />
            <mxPoint x="1280" y="200" as="targetPoint" />
          </mxGeometry>
        </mxCell>
        <mxCell id="1_nh3ZOcjal8TI4YxW9p-63" value="" style="endArrow=classic;html=1;rounded=0;exitX=1;exitY=0.5;exitDx=0;exitDy=0;" parent="1" source="1_nh3ZOcjal8TI4YxW9p-11" edge="1">
          <mxGeometry width="50" height="50" relative="1" as="geometry">
            <mxPoint x="590" y="639.68" as="sourcePoint" />
            <mxPoint x="1280" y="640" as="targetPoint" />
          </mxGeometry>
        </mxCell>
        <mxCell id="1_nh3ZOcjal8TI4YxW9p-64" value="" style="endArrow=classic;html=1;rounded=0;" parent="1" edge="1">
          <mxGeometry width="50" height="50" relative="1" as="geometry">
            <mxPoint x="580" y="659.68" as="sourcePoint" />
            <mxPoint x="1280" y="660" as="targetPoint" />
          </mxGeometry>
        </mxCell>
        <mxCell id="1_nh3ZOcjal8TI4YxW9p-65" value="" style="endArrow=classic;html=1;rounded=0;" parent="1" edge="1">
          <mxGeometry width="50" height="50" relative="1" as="geometry">
            <mxPoint x="580" y="619.68" as="sourcePoint" />
            <mxPoint x="1280" y="620" as="targetPoint" />
          </mxGeometry>
        </mxCell>
        <mxCell id="1_nh3ZOcjal8TI4YxW9p-66" value="" style="endArrow=classic;html=1;rounded=0;entryX=0;entryY=0.5;entryDx=0;entryDy=0;startArrow=oval;startFill=1;" parent="1" target="yHmjnMltrz2Mrqiuffwt-110" edge="1">
          <mxGeometry width="50" height="50" relative="1" as="geometry">
            <mxPoint x="300" y="90" as="sourcePoint" />
            <mxPoint x="750" y="-60" as="targetPoint" />
          </mxGeometry>
        </mxCell>
        <mxCell id="1_nh3ZOcjal8TI4YxW9p-67" value="" style="endArrow=classic;html=1;rounded=0;entryX=0;entryY=0.5;entryDx=0;entryDy=0;" parent="1" edge="1">
          <mxGeometry width="50" height="50" relative="1" as="geometry">
            <mxPoint x="990" y="109.35" as="sourcePoint" />
            <mxPoint x="1030" y="109.35" as="targetPoint" />
          </mxGeometry>
        </mxCell>
        <mxCell id="1_nh3ZOcjal8TI4YxW9p-68" value="1b1" style="text;html=1;align=center;verticalAlign=middle;whiteSpace=wrap;rounded=0;fontStyle=1" parent="1" vertex="1">
          <mxGeometry x="990" y="89.35" width="30" height="20" as="geometry" />
        </mxCell>
        <mxCell id="1_nh3ZOcjal8TI4YxW9p-69" value="1b0" style="text;html=1;align=center;verticalAlign=middle;whiteSpace=wrap;rounded=0;fontStyle=1" parent="1" vertex="1">
          <mxGeometry x="340" y="620" width="30" height="20" as="geometry" />
        </mxCell>
        <mxCell id="1_nh3ZOcjal8TI4YxW9p-70" value="" style="endArrow=classic;html=1;rounded=0;entryX=0;entryY=0.5;entryDx=0;entryDy=0;exitX=0;exitY=1;exitDx=0;exitDy=0;" parent="1" source="1_nh3ZOcjal8TI4YxW9p-69" target="1_nh3ZOcjal8TI4YxW9p-14" edge="1">
          <mxGeometry width="50" height="50" relative="1" as="geometry">
            <mxPoint x="70" y="740" as="sourcePoint" />
            <mxPoint x="120" y="690" as="targetPoint" />
          </mxGeometry>
        </mxCell>
        <mxCell id="1_nh3ZOcjal8TI4YxW9p-71" value="" style="endArrow=classic;html=1;rounded=0;exitX=1;exitY=0.5;exitDx=0;exitDy=0;entryX=0;entryY=0.5;entryDx=0;entryDy=0;" parent="1" source="yHmjnMltrz2Mrqiuffwt-96" target="yHmjnMltrz2Mrqiuffwt-114" edge="1">
          <mxGeometry width="50" height="50" relative="1" as="geometry">
            <mxPoint x="700" y="-10" as="sourcePoint" />
            <mxPoint x="750" y="-60" as="targetPoint" />
            <Array as="points">
              <mxPoint x="650" y="-230" />
              <mxPoint x="650" y="-160" />
              <mxPoint x="270" y="-160" />
              <mxPoint x="270" y="30" />
            </Array>
          </mxGeometry>
        </mxCell>
        <mxCell id="1_nh3ZOcjal8TI4YxW9p-72" value="" style="endArrow=classic;html=1;rounded=0;exitX=1;exitY=0.5;exitDx=0;exitDy=0;entryX=0;entryY=1;entryDx=0;entryDy=0;" parent="1" source="yHmjnMltrz2Mrqiuffwt-132" edge="1" target="yHmjnMltrz2Mrqiuffwt-25">
          <mxGeometry width="50" height="50" relative="1" as="geometry">
            <mxPoint x="620" y="-250" as="sourcePoint" />
            <mxPoint x="40" y="720" as="targetPoint" />
            <Array as="points">
              <mxPoint x="1120" y="-580" />
              <mxPoint x="1120" y="710" />
            </Array>
          </mxGeometry>
        </mxCell>
        <mxCell id="qP250_P8fL8N-p6FQQin-1" value="" style="endArrow=classic;html=1;rounded=0;entryX=0;entryY=0.5;entryDx=0;entryDy=0;startArrow=oval;startFill=1;" parent="1" target="1_nh3ZOcjal8TI4YxW9p-8" edge="1">
          <mxGeometry width="50" height="50" relative="1" as="geometry">
            <mxPoint x="180" y="-10" as="sourcePoint" />
            <mxPoint x="1000" y="-170" as="targetPoint" />
            <Array as="points">
              <mxPoint x="180" y="490" />
            </Array>
          </mxGeometry>
        </mxCell>
        <mxCell id="qP250_P8fL8N-p6FQQin-2" value="" style="endArrow=classic;html=1;rounded=0;startArrow=oval;startFill=1;" parent="1" edge="1">
          <mxGeometry width="50" height="50" relative="1" as="geometry">
            <mxPoint x="210" y="-40" as="sourcePoint" />
            <mxPoint x="380" y="460" as="targetPoint" />
            <Array as="points">
              <mxPoint x="210" y="460" />
            </Array>
          </mxGeometry>
        </mxCell>
        <mxCell id="qP250_P8fL8N-p6FQQin-19" value="" style="endArrow=classic;html=1;rounded=0;exitX=1;exitY=0.5;exitDx=0;exitDy=0;entryX=0;entryY=0.5;entryDx=0;entryDy=0;" parent="1" target="1_nh3ZOcjal8TI4YxW9p-16" edge="1">
          <mxGeometry width="50" height="50" relative="1" as="geometry">
            <mxPoint x="710" y="380" as="sourcePoint" />
            <mxPoint x="780" y="310" as="targetPoint" />
            <Array as="points">
              <mxPoint x="300" y="380" />
              <mxPoint x="300" y="550" />
            </Array>
          </mxGeometry>
        </mxCell>
        <mxCell id="qP250_P8fL8N-p6FQQin-20" value="" style="endArrow=classic;html=1;rounded=0;entryX=0;entryY=0.5;entryDx=0;entryDy=0;exitX=1;exitY=0.5;exitDx=0;exitDy=0;" parent="1" target="1_nh3ZOcjal8TI4YxW9p-15" edge="1">
          <mxGeometry width="50" height="50" relative="1" as="geometry">
            <mxPoint x="710" y="460" as="sourcePoint" />
            <mxPoint x="780" y="310" as="targetPoint" />
            <Array as="points">
              <mxPoint x="660" y="460" />
              <mxPoint x="660" y="410" />
              <mxPoint x="330" y="410" />
              <mxPoint x="330" y="530" />
            </Array>
          </mxGeometry>
        </mxCell>
        <mxCell id="qP250_P8fL8N-p6FQQin-21" value="" style="group;direction=east;rotation=-180;" parent="1" vertex="1" connectable="0">
          <mxGeometry x="710" y="340" width="60" height="80" as="geometry" />
        </mxCell>
        <mxCell id="qP250_P8fL8N-p6FQQin-22" value="" style="rounded=0;whiteSpace=wrap;html=1;fillColor=#dae8fc;strokeColor=#6c8ebf;container=0;rotation=-180;" parent="qP250_P8fL8N-p6FQQin-21" vertex="1">
          <mxGeometry width="60" height="80" as="geometry" />
        </mxCell>
        <mxCell id="qP250_P8fL8N-p6FQQin-23" value="" style="endArrow=none;html=1;rounded=0;exitX=0;exitY=0;exitDx=0;exitDy=0;entryX=1;entryY=0.5;entryDx=0;entryDy=0;" parent="qP250_P8fL8N-p6FQQin-21" edge="1">
          <mxGeometry width="50" height="50" relative="1" as="geometry">
            <mxPoint x="60" y="80" as="sourcePoint" />
            <mxPoint y="40" as="targetPoint" />
          </mxGeometry>
        </mxCell>
        <mxCell id="qP250_P8fL8N-p6FQQin-24" value="" style="endArrow=none;html=1;rounded=0;exitX=0;exitY=1;exitDx=0;exitDy=0;entryX=1;entryY=0.5;entryDx=0;entryDy=0;" parent="qP250_P8fL8N-p6FQQin-21" source="qP250_P8fL8N-p6FQQin-22" target="qP250_P8fL8N-p6FQQin-22" edge="1">
          <mxGeometry width="50" height="50" relative="1" as="geometry">
            <mxPoint x="-20" y="140" as="sourcePoint" />
            <mxPoint x="-70" y="190" as="targetPoint" />
          </mxGeometry>
        </mxCell>
        <mxCell id="qP250_P8fL8N-p6FQQin-25" value="0" style="text;html=1;align=center;verticalAlign=middle;whiteSpace=wrap;rounded=0;container=0;rotation=0;" parent="qP250_P8fL8N-p6FQQin-21" vertex="1">
          <mxGeometry x="40" y="10" width="20" height="20" as="geometry" />
        </mxCell>
        <mxCell id="qP250_P8fL8N-p6FQQin-26" value="1" style="text;html=1;align=center;verticalAlign=middle;whiteSpace=wrap;rounded=0;container=0;rotation=0;" parent="qP250_P8fL8N-p6FQQin-21" vertex="1">
          <mxGeometry x="40" y="50" width="20" height="20" as="geometry" />
        </mxCell>
        <mxCell id="qP250_P8fL8N-p6FQQin-27" value="" style="group;direction=east;rotation=-180;" parent="1" vertex="1" connectable="0">
          <mxGeometry x="710" y="420" width="60" height="80" as="geometry" />
        </mxCell>
        <mxCell id="qP250_P8fL8N-p6FQQin-28" value="" style="rounded=0;whiteSpace=wrap;html=1;fillColor=#dae8fc;strokeColor=#6c8ebf;container=0;rotation=-180;" parent="qP250_P8fL8N-p6FQQin-27" vertex="1">
          <mxGeometry width="60" height="80" as="geometry" />
        </mxCell>
        <mxCell id="qP250_P8fL8N-p6FQQin-29" value="" style="endArrow=none;html=1;rounded=0;exitX=0;exitY=0;exitDx=0;exitDy=0;entryX=1;entryY=0.5;entryDx=0;entryDy=0;" parent="qP250_P8fL8N-p6FQQin-27" edge="1">
          <mxGeometry width="50" height="50" relative="1" as="geometry">
            <mxPoint x="60" y="80" as="sourcePoint" />
            <mxPoint y="40" as="targetPoint" />
          </mxGeometry>
        </mxCell>
        <mxCell id="qP250_P8fL8N-p6FQQin-30" value="" style="endArrow=none;html=1;rounded=0;exitX=0;exitY=1;exitDx=0;exitDy=0;entryX=1;entryY=0.5;entryDx=0;entryDy=0;" parent="qP250_P8fL8N-p6FQQin-27" source="qP250_P8fL8N-p6FQQin-28" target="qP250_P8fL8N-p6FQQin-28" edge="1">
          <mxGeometry width="50" height="50" relative="1" as="geometry">
            <mxPoint x="-20" y="140" as="sourcePoint" />
            <mxPoint x="-70" y="190" as="targetPoint" />
          </mxGeometry>
        </mxCell>
        <mxCell id="qP250_P8fL8N-p6FQQin-31" value="0" style="text;html=1;align=center;verticalAlign=middle;whiteSpace=wrap;rounded=0;container=0;rotation=0;" parent="qP250_P8fL8N-p6FQQin-27" vertex="1">
          <mxGeometry x="40" y="10" width="20" height="20" as="geometry" />
        </mxCell>
        <mxCell id="qP250_P8fL8N-p6FQQin-32" value="1" style="text;html=1;align=center;verticalAlign=middle;whiteSpace=wrap;rounded=0;container=0;rotation=0;" parent="qP250_P8fL8N-p6FQQin-27" vertex="1">
          <mxGeometry x="40" y="50" width="20" height="20" as="geometry" />
        </mxCell>
        <mxCell id="qP250_P8fL8N-p6FQQin-33" value="" style="endArrow=classic;html=1;rounded=0;entryX=1;entryY=0.5;entryDx=0;entryDy=0;startArrow=oval;startFill=1;" parent="1" target="qP250_P8fL8N-p6FQQin-32" edge="1">
          <mxGeometry width="50" height="50" relative="1" as="geometry">
            <mxPoint x="950" y="400" as="sourcePoint" />
            <mxPoint x="780" y="290" as="targetPoint" />
            <Array as="points">
              <mxPoint x="950" y="480" />
            </Array>
          </mxGeometry>
        </mxCell>
        <mxCell id="1_nh3ZOcjal8TI4YxW9p-30" value="" style="shape=flexArrow;endArrow=classic;html=1;rounded=0;exitX=1;exitY=0.5;exitDx=0;exitDy=0;entryX=1;entryY=0.5;entryDx=0;entryDy=0;fillColor=#f5f5f5;strokeColor=#666666;" parent="1" source="yHmjnMltrz2Mrqiuffwt-118" target="1_nh3ZOcjal8TI4YxW9p-28" edge="1">
          <mxGeometry width="50" height="50" relative="1" as="geometry">
            <mxPoint x="620" y="130" as="sourcePoint" />
            <mxPoint x="780" y="280" as="targetPoint" />
            <Array as="points">
              <mxPoint x="820" y="140" />
              <mxPoint x="820" y="280" />
            </Array>
          </mxGeometry>
        </mxCell>
        <mxCell id="1_nh3ZOcjal8TI4YxW9p-29" value="" style="shape=flexArrow;endArrow=classic;html=1;rounded=0;exitX=1;exitY=0.5;exitDx=0;exitDy=0;entryX=1;entryY=0.5;entryDx=0;entryDy=0;fillColor=#f5f5f5;strokeColor=#666666;" parent="1" source="yHmjnMltrz2Mrqiuffwt-82" target="1_nh3ZOcjal8TI4YxW9p-27" edge="1">
          <mxGeometry width="50" height="50" relative="1" as="geometry">
            <mxPoint x="620" y="-260" as="sourcePoint" />
            <mxPoint x="820" y="-270" as="targetPoint" />
            <Array as="points">
              <mxPoint x="860" y="-270" />
              <mxPoint x="860" y="320" />
            </Array>
          </mxGeometry>
        </mxCell>
        <mxCell id="1_nh3ZOcjal8TI4YxW9p-31" value="" style="shape=flexArrow;endArrow=classic;html=1;rounded=0;entryX=0;entryY=0.5;entryDx=0;entryDy=0;fillColor=#f5f5f5;strokeColor=#666666;" parent="1" target="1_nh3ZOcjal8TI4YxW9p-13" edge="1">
          <mxGeometry width="50" height="50" relative="1" as="geometry">
            <mxPoint x="710" y="300" as="sourcePoint" />
            <mxPoint x="1000" y="-80" as="targetPoint" />
            <Array as="points">
              <mxPoint x="260" y="300" />
              <mxPoint x="260" y="580" />
            </Array>
          </mxGeometry>
        </mxCell>
      </root>
    </mxGraphModel>
  </diagram>
</mxfile>
